<svg width="30" height="30" viewBox="0 0 30 30" fill="none" xmlns="http://www.w3.org/2000/svg">
<path d="M13.7375 3.6499L6.3625 6.9249C4.2375 7.8624 4.2375 9.4124 6.3625 10.3499L13.7375 13.6249C14.575 13.9999 15.95 13.9999 16.7875 13.6249L24.1625 10.3499C26.2875 9.4124 26.2875 7.8624 24.1625 6.9249L16.7875 3.6499C15.95 3.2749 14.575 3.2749 13.7375 3.6499Z" stroke="white" stroke-width="1.5" stroke-linecap="round" stroke-linejoin="round"/>
<path d="M26.25 13.75C26.25 14.8 25.4625 16.0125 24.5 16.4375L16.0125 20.2125C15.3625 20.5 14.625 20.5 13.9875 20.2125L5.5 16.4375C4.5375 16.0125 3.75 14.8 3.75 13.75" stroke="white" stroke-width="1.5" stroke-linecap="round" stroke-linejoin="round"/>
<path d="M26.25 20C26.25 21.1625 25.5625 22.2125 24.5 22.6875L16.0125 26.4625C15.3625 26.75 14.625 26.75 13.9875 26.4625L5.5 22.6875C4.4375 22.2125 3.75 21.1625 3.75 20" stroke="white" stroke-width="1.5" stroke-linecap="round" stroke-linejoin="round"/>
</svg>
